# xmcd
#
# Track frame offsets:
# 150
# 7941
# 23981
# 34654
# 51114
# 61153
# 77063
# 90733
# 103269
# 122410
# 132544
# 146989
# 163579
# 174744
#
# Disc length: 2556 seconds
#
#
# Revision: 0
# Processed by: cddbd v1.5.1PL2 Copyright (c) Steve Scherf et al.
# Submitted via: FreeRIP 2.945 
#
DISCID=ba09fa0e
DTITLE=Conjunto Sarau - Conjunto Sarau - Cordas Novas
DYEAR=1900
DGENRE=Chorinho
TTITLE0=Bem-Te-Vi Atrevido- Lima Pesca
TTITLE1=Capibaribe- Rossini Ferreira
TTITLE2=Minha Flauta de Prata- Jaime Florence (Meira)
TTITLE3=No Retivo do João - Jacob do Bandolim
TTITLE4=Dedilhando-Orlando Silveira e Esmeraldino Sales
TTITLE5=Cordas Novas- Pedro Amorim
TTITLE6=Carícia - Jacob do Bandolim
TTITLE7=Dialogando - Ricado Caiafate
TTITLE8=Bouquet - Mário Álvares
TTITLE9=Dois Companheiros - Déo Rian e Orlando Silveira
TTITLE10=Sorriso de Cristal - Ërica Costa
TTITLE11=Sonhos - Cícero Telles de Menezes
TTITLE12=Quando Me Lembro - Déo Rian
TTITLE13=Desvairada - Garoto
EXTD=Bruno Rian - bandolim\nAndré Bellieny - violão 7b cordas\nSérgio Preta - cavaquinho\nCarlos Agenor - pandeiro\nwww.momentus.com.br/uses/sarau
EXTT0=
EXTT1=
EXTT2=
EXTT3=
EXTT4=
EXTT5=
EXTT6=
EXTT7=
EXTT8=
EXTT9=
EXTT10=
EXTT11=
EXTT12=
EXTT13=
PLAYORDER=
